<?xml version="1.0" encoding="utf-8"?>
<!DOCTYPE svg PUBLIC "-//W3C//DTD SVG 1.1//EN" "http://www.w3.org/Graphics/SVG/1.1/DTD/svg11.dtd">
<svg style="width:308px;height:308px;" version="1.1" id="图形" xmlns="http://www.w3.org/2000/svg" xmlns:xlink="http://www.w3.org/1999/xlink" x="0px" y="0px" width="1024px" height="1024px" viewBox="0 0 1024 1024" enable-background="new 0 0 1024 1024" xml:space="preserve">
  <path class="svgpath" data-index="path_0" fill="#272636" d="M956.8 723.2c-0.042667-5.824-2.197333-10.816-6.4-14.933333L526.933333 284.8c-4.138667-4.202667-9.130667-6.336-14.933333-6.4-5.824 0.064-10.816 2.218667-14.933333 6.4L73.6 708.266667c-4.224 4.096-6.357333 9.088-6.4 14.933333 0.042667 5.824 2.197333 10.816 6.4 14.912 4.117333 4.224 9.088 6.357333 14.933333 6.421333 5.845333-0.064 10.816-2.197333 14.933333-6.421333L512 329.6 920.533333 738.133333c4.117333 4.202667 9.109333 6.357333 14.912 6.421333 5.824-0.064 10.816-2.197333 14.933333-6.421333C954.624 733.994667 956.757333 729.024 956.8 723.2z" />

</svg>
