<?xml version="1.0" encoding="utf-8"?>
<!DOCTYPE svg PUBLIC "-//W3C//DTD SVG 1.1//EN" "http://www.w3.org/Graphics/SVG/1.1/DTD/svg11.dtd">
<svg style="width:308px;height:308px;" version="1.1" id="图形" xmlns="http://www.w3.org/2000/svg" xmlns:xlink="http://www.w3.org/1999/xlink" x="0px" y="0px" width="1024px" height="1024px" viewBox="0 0 1024 1024" enable-background="new 0 0 1024 1024" xml:space="preserve">
  <path class="svgpath" data-index="path_0" fill="#272636" d="M940.022888 321.014224c-22.547529-53.314253-54.825676-101.189633-95.933933-142.29789s-88.983637-73.384357-142.29789-95.934956c-55.210439-23.351847-113.843838-35.192523-174.272116-35.192523S408.457274 59.429531 353.247858 82.781378c-53.314253 22.550599-101.190657 54.827723-142.29789 95.934956s-73.384357 88.983637-95.934956 142.29789c-23.351847 55.210439-35.192523 113.843838-35.192523 174.272116s11.840676 119.061676 35.192523 174.271092c22.549575 53.315276 54.826699 101.190657 95.934956 142.298913s88.983637 73.386404 142.29789 95.934956c55.210439 23.350824 113.843838 35.192523 174.272116 35.192523s119.061676-11.839653 174.272116-35.192523c53.314253-22.548552 101.189633-54.826699 142.29789-95.934956s73.385381-88.983637 95.933933-142.298913c23.352871-55.209416 35.19457-113.842815 35.19457-174.271092S963.376783 376.224664 940.022888 321.014224zM894.108163 650.136104c-20.037359 47.371914-48.724725 89.920986-85.272106 126.46632-36.544311 36.545334-79.094406 65.233724-126.465297 85.272106-49.031716 20.738323-101.131305 31.252795-154.849764 31.252795-53.719482 0-105.818047-10.514471-154.850787-31.252795-47.370891-20.038382-89.920986-48.726771-126.46632-85.272106-36.544311-36.545334-65.234747-79.094406-85.271082-126.46632-20.739347-49.030693-31.253818-101.131305-31.253818-154.850787s10.515494-105.818047 31.253818-154.850787c20.036335-47.370891 48.725748-89.920986 85.271082-126.46632 36.545334-36.544311 79.094406-65.234747 126.46632-85.271082 49.03274-20.739347 101.131305-31.253818 154.850787-31.253818 53.718459 0 105.818047 10.515494 154.849764 31.253818 47.370891 20.036335 89.920986 48.725748 126.465297 85.271082 36.547381 36.545334 65.234747 79.094406 85.272106 126.46632 20.739347 49.03274 31.252795 101.131305 31.252795 154.850787S914.846486 601.105411 894.108163 650.136104z" />
<path class="svgpath" data-index="path_1" fill="#272636" d="M703.702602 319.102688c-9.991562-9.989515-26.189476-9.989515-36.178991 0L527.519973 459.106326 387.516336 319.102688c-9.990538-9.989515-26.188452-9.989515-36.177967 0-9.991562 9.990538-9.991562 26.188452 0 36.178991l140.001591 140.003638L351.337345 635.288954c-9.991562 9.991562-9.991562 26.190499 0 36.177967 4.994758 4.994758 11.541871 7.492648 18.090007 7.492648 6.54609 0 13.094226-2.495844 18.090007-7.492648l140.002614-140.001591 140.001591 140.001591c4.995781 4.996804 11.541871 7.492648 18.090007 7.492648 6.54609 0 13.095249-2.49789 18.09103-7.492648 9.990538-9.989515 9.990538-26.188452 0-36.177967L563.698964 495.28634l140.002614-140.003638C713.692117 345.291141 713.692117 329.093227 703.702602 319.102688z" />

</svg>
