<?xml version="1.0" encoding="utf-8"?>
<!DOCTYPE svg PUBLIC "-//W3C//DTD SVG 1.1//EN" "http://www.w3.org/Graphics/SVG/1.1/DTD/svg11.dtd">
<svg style="width:308px;height:308px;" version="1.1" id="图形" xmlns="http://www.w3.org/2000/svg" xmlns:xlink="http://www.w3.org/1999/xlink" x="0px" y="0px" width="1024px" height="1024px" viewBox="0 0 1024 1024" enable-background="new 0 0 1024 1024" xml:space="preserve">
  <path class="svgpath" data-index="path_0" fill="#272636" d="M102.56 102.56l0 818.88 818.88 0 0-818.88-818.88 0zM887.328 136.672l0 153.536-750.624 0 0-153.536 750.624 0zM136.672 887.328l0-562.976 750.624 0 0 562.976-750.624 0z" />
<path class="svgpath" data-index="path_1" fill="#272636" d="M358.432 187.872l51.2 0 0 51.168-51.2 0 0-51.168z" />
<path class="svgpath" data-index="path_2" fill="#272636" d="M614.368 187.872l51.168 0 0 51.168-51.168 0 0-51.168z" />
<path class="svgpath" data-index="path_3" fill="#272636" d="M395.136 445.728c-6.112 41.504-25.856 42.24-65.6 43.68l-6.176 0.224 0 28.928 67.328 0 0 189.248 35.712 0 0-267.552-30.496 0-0.8 5.472z" />
<path class="svgpath" data-index="path_4" fill="#272636" d="M596.544 526.144c-15.872 0-32.16 5.184-45.056 13.856l12.16-62.56 112.48 0 0-33.92-139.104 0-27.136 144.896 30.88 0 1.888-2.944c10.784-16.8 30.464-27.264 51.392-27.264 34.048 0 58.752 25.184 58.752 59.84 0 31.36-19.68 63.104-57.28 63.104-32.128 0-55.232-21.696-56.192-52.768l-0.192-6.208-35.68 0 0.16 6.56c1.152 50.56 37.344 84.512 90.112 84.512 53.184 0 94.816-40.704 94.816-92.64 0-56.512-36.928-94.496-91.904-94.496z" />

</svg>
