<?xml version="1.0" encoding="utf-8"?>
<!DOCTYPE svg PUBLIC "-//W3C//DTD SVG 1.1//EN" "http://www.w3.org/Graphics/SVG/1.1/DTD/svg11.dtd">
<svg style="width:308px;height:308px;" version="1.1" id="图形" xmlns="http://www.w3.org/2000/svg" xmlns:xlink="http://www.w3.org/1999/xlink" x="0px" y="0px" width="1024px" height="1024px" viewBox="0 0 1024 1024" enable-background="new 0 0 1024 1024" xml:space="preserve">
  <path class="svgpath" data-index="path_0" fill="#272636" d="M512.00614 65.005526c-246.865457 0-446.987311 200.125947-446.987311 446.985264 0 246.868527 200.122877 446.990381 446.987311 446.990381 246.862387 0 446.985264-200.122877 446.985264-446.990381C958.991404 265.13045 758.868527 65.005526 512.00614 65.005526zM785.121448 363.244025 478.685243 663.342894c-1.543146 2.568499-3.420913 5.175883-5.933129 7.691169l-14.363126 14.366196c-7.9296 7.93267-17.280572 11.461029-20.859074 7.873318L291.569612 540.54615c-3.578502-3.581572-0.053212-12.921287 7.878434-20.856004l14.369266-14.369266c7.93267-7.93267 17.268292-11.45489 20.852934-7.870248l109.401666 114.473171 297.949926-291.781436c7.93267-7.9296 20.799722-7.9296 28.732391 0l14.366196 14.369266C793.063327 342.444303 793.063327 355.317495 785.121448 363.244025z" />

</svg>
